<svg id="Capa_1" data-name="Capa 1" xmlns="http://www.w3.org/2000/svg" xmlns:xlink="http://www.w3.org/1999/xlink" viewBox="0 0 687.15 585.54"><defs><style>.cls-1{fill:#0b0d19;}.cls-2{fill:#e6e6e6;}.cls-3,.cls-4{isolation:isolate;opacity:0.8;}.cls-3{fill:url(#Degradado_sin_nombre);}.cls-4{fill:url(#Degradado_sin_nombre_2);}.cls-5{fill:#2f2e41;}.cls-6{fill:#fff;}</style><linearGradient id="Degradado_sin_nombre" x1="689.87" y1="421.44" x2="776.68" y2="421.44" gradientTransform="matrix(1, 0, 0, -1, -173.35, 777)" gradientUnits="userSpaceOnUse"><stop offset="0" stop-color="#fff"/><stop offset="1" stop-color="#fff" stop-opacity="0.3"/></linearGradient><linearGradient id="Degradado_sin_nombre_2" x1="631.27" y1="282.55" x2="718.08" y2="282.55" xlink:href="#Degradado_sin_nombre"/></defs><circle class="cls-1" cx="374.65" cy="41.22" r="10.85"/><circle class="cls-1" cx="665.46" cy="69.43" r="10.85"/><circle class="cls-2" cx="536.33" cy="90.05" r="6.51"/><circle class="cls-2" cx="35" cy="295.14" r="6.51"/><circle class="cls-2" cx="420.22" cy="469.84" r="6.51"/><polygon class="cls-1" points="522.22 283.24 518.98 286.47 515.75 283.22 513.58 285.37 516.81 288.62 513.56 291.85 515.71 294.01 518.96 290.79 522.19 294.04 524.35 291.88 521.13 288.63 524.38 285.41 522.22 283.24"/><polygon class="cls-2" points="91.43 389.58 88.18 392.81 84.95 389.56 82.79 391.71 86.01 394.96 82.76 398.19 84.92 400.36 88.17 397.13 91.39 400.38 93.56 398.23 90.33 394.98 93.58 391.75 91.43 389.58"/><polygon class="cls-2" points="117.47 200.77 114.22 204 111 200.75 108.83 202.9 112.06 206.15 108.81 209.38 110.96 211.54 114.21 208.32 117.44 211.56 119.6 209.41 116.38 206.16 119.63 202.94 117.47 200.77"/><polygon class="cls-2" points="684.99 0.02 681.74 3.25 678.52 0 676.35 2.15 679.58 5.4 676.33 8.63 678.48 10.79 681.73 7.57 684.96 10.82 687.12 8.67 683.89 5.42 687.14 2.19 684.99 0.02"/><polygon class="cls-2" points="428.9 90.09 425.65 93.31 422.43 90.06 420.26 92.22 423.49 95.47 420.24 98.69 422.39 100.86 425.64 97.63 428.87 100.88 431.03 98.73 427.81 95.48 431.06 92.25 428.9 90.09"/><path class="cls-3" d="M518.44,406l33-38.6,33-38.6L603,307c1-1.2-.56-3.08-1.59-1.88l-33,38.6-33,38.6-18.62,21.79C515.82,405.32,517.41,407.2,518.44,406Z" transform="translate(-67 -155.01)"/><path class="cls-4" d="M459.85,544.89l33-38.6,33-38.6L544.4,445.9c1-1.2-.56-3.09-1.59-1.88l-33,38.6-33,38.6L458.26,543c-1,1.2.56,3.08,1.59,1.88Z" transform="translate(-67 -155.01)"/><path class="cls-5" d="M293.53,331.32h61.85v24.34a15.81,15.81,0,0,1-15.81,15.81H309.34a15.81,15.81,0,0,1-15.81-15.81h0V331.32Z" transform="translate(-67 -155.01)"/><path class="cls-2" d="M376,654.69c-14.09,14.27-28.2,14.36-42.32.46L322.82,559.2l-7.59,96.15c-14.12,11.43-27.28,13-39.07.42-11.24-83.07-17.35-160.25-7.59-219.19L248,353l46.66-21.7c9.4,23.24-5.42,35.13,28.09,34.74,33.22-.4,30.74-12.89,29.42-34.74l42.93,16.51a15.39,15.39,0,0,1,9.14,19l-21.68,68.67C390.86,470.16,382.28,566.59,376,654.69Z" transform="translate(-67 -155.01)"/><path class="cls-5" d="M310.89,738.24s-34.64,3-39.28,1.13h0a8.42,8.42,0,0,1-.86-.4c-6.89-3.52-7.1-13.38-.66-17.67l13.67-9.1-11.94-64,46.12.54Z" transform="translate(-67 -155.01)"/><path class="cls-5" d="M336.93,738.79s34.64,3,39.28,1.12h0c.3-.12.58-.25.86-.39,6.89-3.53,7.1-13.39.66-17.68l-13.67-9.1,16.82-64H332.59Z" transform="translate(-67 -155.01)"/><path class="cls-2" d="M255.55,510.37l6.86,27.46a16.55,16.55,0,0,1-7.2,18h0a16.56,16.56,0,0,1-25.31-12.2l-1.48-13.73L223,399.44a54.9,54.9,0,0,1,33.86-50.69l10.63-4.41Z" transform="translate(-67 -155.01)"/><path class="cls-2" d="M428.08,398.36l0,.77-4.38,105.3-.85,20.35-.16,4-1.49,13.73A16.55,16.55,0,0,1,388.26,539a15.22,15.22,0,0,1,.4-2.24l6.87-27.47-.15-2-.92-12.76L383.59,343.26l10.64,4.4A55,55,0,0,1,428.08,398.36Z" transform="translate(-67 -155.01)"/><path class="cls-5" d="M327.23,518.19c-39.42,0-63.74-13.67-64.08-13.87l1.08-1.88c.49.28,49.25,27.64,120.9,3.93l.68,2.06A185.88,185.88,0,0,1,327.23,518.19Z" transform="translate(-67 -155.01)"/><path class="cls-5" d="M288.19,618.24c-8.67-19.52-8.71-104.36-8.71-108h2.17c0,.88,0,88,8.53,107.07Z" transform="translate(-67 -155.01)"/><path class="cls-5" d="M292.71,619.11c-7.73,0-12.87-1.65-16.21-3.53-6.1-3.44-7.35-8.12-7.4-8.32l2.1-.54-1.05.27,1.05-.27c0,.16,1.14,4.06,6.46,7,5.86,3.26,17.65,5.69,40.56-1.23l.63,2.07C307.88,617.9,299.34,619.11,292.71,619.11Z" transform="translate(-67 -155.01)"/><rect class="cls-5" x="275.32" y="341.63" width="2.17" height="170.16" transform="translate(-87.54 -140.97) rotate(-2.8)"/><path class="cls-5" d="M361.8,618.24l-2-.89c8.49-19.1,8.53-106.19,8.53-107.07h2.17C370.51,513.88,370.47,598.72,361.8,618.24Z" transform="translate(-67 -155.01)"/><path class="cls-5" d="M357.28,619.11c-6.63,0-15.17-1.21-26.14-4.53l.63-2.07c22.91,6.92,34.7,4.49,40.56,1.23,5.32-3,6.42-6.86,6.46-7l2.1.54c-.05.2-1.3,4.88-7.4,8.32C370.15,617.47,365,619.11,357.28,619.11Z" transform="translate(-67 -155.01)"/><rect class="cls-5" x="288.51" y="425.62" width="170.16" height="2.17" transform="translate(-137.85 624.01) rotate(-87.2)"/><polygon class="cls-1" points="288.25 212.13 272.1 236 237.38 236 225.77 212.13 230.87 212.13 239.55 231.66 268.85 231.66 282.95 212.13 288.25 212.13"/><polygon points="327.44 224.06 327.73 224.63 327.44 225.15 327.44 224.06"/><path class="cls-1" d="M430.25,398.36l0,.77-20.59,6L396.9,379.63l13-23.89A54.79,54.79,0,0,1,430.25,398.36Z" transform="translate(-67 -155.01)"/><path class="cls-1" d="M221.66,398.36l0,.77,20.59,6L255,379.63l-13-23.89A54.79,54.79,0,0,0,221.66,398.36Z" transform="translate(-67 -155.01)"/><circle class="cls-2" cx="257.45" cy="136.71" r="57.51"/><circle class="cls-5" cx="257.45" cy="144.3" r="42.32"/><polygon class="cls-1" points="357.28 349.43 356.4 369.77 328.57 354.82 327.85 352.24 326.9 339.48 357.28 349.43"/><polygon class="cls-1" points="159.32 349.43 160.25 369.77 189.5 354.82 190.26 352.24 191.26 339.48 159.32 349.43"/><polygon class="cls-5" points="272.68 237.08 236.7 237.08 216.78 196.13 215.75 181.4 217.92 181.25 218.91 195.56 238.06 234.91 271.52 234.91 296.07 198.62 301.3 182.6 303.37 183.27 297.96 199.71 272.68 237.08"/><polygon class="cls-6" points="0 584.99 64.87 584.75 129.74 584.66 259.48 584.49 389.23 584.66 454.1 584.75 518.97 584.99 454.1 585.24 389.23 585.33 259.48 585.49 129.74 585.32 64.87 585.24 0 584.99"/></svg>